<svg width="16" height="16" viewBox="0 0 16 16" fill="none" xmlns="http://www.w3.org/2000/svg">
<path d="M1.33301 7.33344C1.33301 6.40443 1.33301 5.93993 1.39457 5.55126C1.73342 3.4118 3.41137 1.73385 5.55084 1.39499C5.9395 1.33344 6.404 1.33344 7.33301 1.33344H7.99968C9.54963 1.33344 10.3246 1.33344 10.9604 1.50381C12.6859 1.96614 14.0336 3.31388 14.496 5.03934C14.6663 5.67517 14.6663 6.45015 14.6663 8.0001V12.7806C14.6663 13.9041 13.4407 14.5981 12.4773 14.02V14.02C11.7285 13.5708 10.8717 13.3334 9.99852 13.3334H7.33301C6.404 13.3334 5.9395 13.3334 5.55084 13.2719C3.41137 12.933 1.73342 11.2551 1.39457 9.11561C1.33301 8.72694 1.33301 8.26244 1.33301 7.33344V7.33344Z" stroke="#374151" stroke-width="1.5" stroke-linecap="round" stroke-linejoin="round"/>
</svg>
